<svg xmlns="http://www.w3.org/2000/svg" width="24" height="24" viewBox="0 0 24 24">
    <g fill="none" fill-rule="evenodd">
        <g>
            <g>
                <g>
                    <g transform="translate(-445 -876) translate(423 276) translate(2 316) translate(20 284)">
                        <circle cx="12" cy="12" r="12" fill="#A864D8"/>
                        <path fill="#FFF" d="M11.946 7.5c2.456 0 4.446 1.99 4.446 4.446 0 .907-.271 1.75-.737 2.453l.845.843-1.258 1.258-.843-.845c-.703.466-1.546.737-2.453.737-2.455 0-4.446-1.99-4.446-4.446C7.5 9.491 9.49 7.5 11.946 7.5zm0 1.778c-1.473 0-2.668 1.195-2.668 2.668s1.195 2.668 2.668 2.668c.412 0 .802-.094 1.15-.26l-.369-.37 1.258-1.257.369.369c.166-.348.26-.738.26-1.15 0-1.473-1.195-2.668-2.668-2.668z"/>
                    </g>
                </g>
            </g>
        </g>
    </g>
</svg>
